<?xml version="1.0" standalone="no"?>
<!DOCTYPE svg PUBLIC "-//W3C//DTD SVG 20010904//EN"
 "http://www.w3.org/TR/2001/REC-SVG-20010904/DTD/svg10.dtd">
<svg version="1.0" xmlns="http://www.w3.org/2000/svg"
 width="2048.000000pt" height="2048.000000pt" viewBox="0 0 2048.000000 2048.000000"
 preserveAspectRatio="xMidYMid meet">

<g transform="translate(0.000000,2048.000000) scale(0.100000,-0.100000)"
fill="#000000" stroke="none">
<path d="M3317 11808 c6 -7 97 -130 203 -273 106 -143 197 -266 203 -273 10
-13 -16 -3 -157 62 -43 20 -80 35 -81 34 -2 -2 -24 -104 -50 -228 -41 -197
-135 -633 -150 -698 l-5 -22 942 2 c1057 3 967 -3 1051 77 58 54 74 95 117
292 47 211 49 253 16 301 l-23 34 37 32 c21 17 47 51 58 74 28 58 95 401 89
455 -6 52 -47 110 -93 129 -47 20 -2172 21 -2157 2z m1577 -330 c14 -22 -8
-133 -33 -168 l-18 -25 -372 -3 c-352 -2 -372 -1 -367 15 2 10 12 56 21 103
10 47 19 88 22 93 2 4 169 6 370 5 331 -3 367 -5 377 -20z m-138 -528 c27 -11
27 -11 20 -82 -7 -79 -24 -114 -62 -128 -14 -6 -177 -10 -375 -10 -338 0 -349
1 -349 19 0 17 19 119 35 189 l5 22 350 0 c215 0 359 -4 376 -10z"/>
<path d="M5966 11808 c9 -15 265 -352 362 -476 72 -92 75 -91 -82 -18 -55 25
-100 45 -102 44 -3 -4 -99 -442 -150 -688 -24 -118 -46 -225 -49 -237 l-5 -23
314 0 c291 0 315 1 320 18 12 42 296 1371 296 1387 0 3 -205 5 -456 5 -361 0
-454 -3 -448 -12z"/>
<path d="M7250 11814 c0 -4 362 -488 413 -552 13 -16 -5 -9 -137 52 -55 25
-100 45 -102 44 -3 -4 -99 -442 -150 -688 -24 -118 -46 -225 -49 -237 l-5 -23
315 0 315 0 5 23 c3 12 23 108 44 212 22 105 45 214 51 243 l12 54 87 -94 c47
-51 160 -171 249 -265 l164 -173 365 0 365 0 -139 148 c-77 81 -226 239 -332
352 l-191 205 22 19 c13 10 227 167 476 350 l453 331 -361 3 -361 2 -117 -84
c-64 -46 -225 -163 -357 -260 -131 -96 -241 -174 -243 -171 -2 2 21 116 52
254 31 138 56 253 56 256 0 3 -202 5 -450 5 -247 0 -450 -3 -450 -6z"/>
<path d="M9850 11817 c0 -1 92 -126 205 -277 112 -151 205 -278 205 -282 0 -4
-52 18 -116 48 -64 30 -119 53 -122 50 -9 -10 -162 -740 -162 -776 0 -59 38
-122 90 -147 l44 -23 868 0 c477 0 868 2 868 3 0 2 14 71 30 152 17 81 30 152
30 157 0 4 -271 8 -602 8 -332 0 -613 3 -626 6 -31 9 -34 37 -14 134 l17 85
535 5 535 5 32 23 c68 48 86 85 129 265 l6 27 -581 0 c-365 0 -581 4 -581 10
0 5 10 54 21 109 l22 101 581 2 c567 3 582 4 621 24 58 30 92 86 120 195 14
52 25 95 25 97 0 1 -490 2 -1090 2 -599 0 -1090 -1 -1090 -3z"/>
<path d="M12417 11808 c6 -7 90 -121 188 -253 98 -132 189 -255 203 -273 l25
-33 -24 10 c-13 5 -69 30 -123 55 -55 25 -100 45 -102 44 -3 -4 -99 -442 -150
-688 -24 -118 -46 -225 -49 -237 l-5 -23 315 0 315 0 5 23 c3 12 50 236 105
497 55 261 105 496 111 523 l11 47 363 0 c321 0 364 -2 376 -16 19 -23 -32
-269 -61 -299 -20 -19 -37 -20 -347 -25 l-326 -5 279 -372 278 -373 329 0
c262 0 327 3 320 13 -48 61 -200 268 -246 333 l-57 82 98 4 c80 3 106 9 147
30 62 33 108 80 134 138 20 47 129 539 138 625 6 66 -27 130 -83 162 l-39 23
-1069 0 c-853 0 -1066 -3 -1059 -12z"/>
<path d="M15066 11808 c4 -7 93 -127 198 -266 105 -140 197 -263 205 -273 11
-15 -2 -12 -62 15 -41 19 -93 44 -116 55 -22 12 -42 21 -45 21 -9 0 -49 -197
-49 -241 1 -56 23 -100 65 -131 l33 -23 563 -5 c546 -5 564 -6 578 -25 8 -11
13 -24 10 -30 -2 -6 -9 -36 -15 -67 -7 -32 -21 -68 -31 -80 l-18 -23 -589 -5
c-660 -6 -625 -1 -683 -81 -26 -36 -37 -73 -65 -207 l-7 -32 894 2 c892 3 893
3 933 24 48 26 110 84 129 123 20 38 116 503 116 561 0 56 -29 104 -80 134
-34 20 -51 21 -575 23 -297 2 -550 5 -562 8 -32 7 -31 44 2 193 l5 22 586 0
c643 0 625 -2 691 62 17 17 36 42 42 57 10 25 51 183 51 195 0 3 -498 6 -1106
6 -881 0 -1104 -3 -1098 -12z"/>
<path d="M910 10024 c0 -6 65 -92 273 -362 82 -107 147 -195 145 -196 -1 -2
-56 21 -121 51 -65 30 -120 53 -122 52 -3 -4 -133 -607 -155 -726 -14 -72 -3
-121 39 -167 53 -58 15 -56 954 -56 l863 0 35 160 36 160 -612 0 c-501 0 -615
2 -630 14 -21 15 -21 14 92 539 l47 217 568 0 c621 0 609 -1 671 58 41 39 55
70 76 172 l18 90 -1088 0 c-599 0 -1089 -3 -1089 -6z"/>
<path d="M3470 10025 c0 -7 216 -300 330 -447 65 -84 85 -115 68 -109 -13 5
-68 30 -122 55 -55 25 -100 45 -101 44 -2 -2 -24 -104 -50 -228 -41 -196 -135
-633 -150 -697 l-5 -23 314 0 c291 0 315 1 320 18 3 9 28 125 56 257 28 132
54 248 56 258 5 16 30 17 350 17 335 0 344 -1 344 -20 0 -22 -100 -511 -107
-522 -2 -5 139 -8 314 -8 l318 0 63 293 c110 506 232 1088 232 1103 0 12 -49
14 -313 14 l-312 0 -53 -247 c-30 -137 -56 -258 -59 -270 l-5 -23 -349 0 -349
0 5 23 c6 28 105 511 105 514 0 2 -202 3 -450 3 -247 0 -450 -2 -450 -5z"/>
<path d="M6060 10024 c0 -6 65 -92 273 -362 82 -107 147 -195 145 -197 -1 -1
-54 21 -117 51 -63 30 -116 52 -119 50 -2 -3 -40 -173 -84 -378 -84 -396 -89
-445 -51 -496 10 -14 32 -35 47 -46 27 -21 36 -21 897 -24 868 -2 870 -2 919
19 55 23 124 92 146 144 22 53 227 1024 228 1080 0 61 -25 110 -74 142 l-33
23 -1088 0 c-599 0 -1089 -3 -1089 -6z m1611 -330 c18 -22 -122 -699 -152
-729 -19 -19 -35 -20 -374 -23 -239 -2 -362 1 -375 8 -12 7 -20 21 -20 38 0
23 133 671 145 710 3 9 89 12 383 12 332 0 381 -2 393 -16z"/>
<path d="M8746 10018 c9 -15 265 -352 362 -476 72 -92 75 -91 -82 -18 -55 25
-100 45 -102 44 -3 -4 -99 -442 -150 -688 -24 -118 -46 -225 -49 -237 l-5 -23
314 0 c291 0 315 1 320 18 12 42 296 1371 296 1387 0 3 -205 5 -456 5 -361 0
-454 -3 -448 -12z"/>
<path d="M10010 10024 c0 -6 65 -92 273 -362 82 -107 147 -195 145 -196 -1 -2
-56 21 -121 51 -65 30 -120 53 -122 52 -3 -4 -133 -607 -155 -726 -14 -72 -3
-121 39 -167 53 -58 15 -56 954 -56 l863 0 35 160 36 160 -612 0 c-501 0 -615
2 -630 14 -21 15 -21 14 92 539 l47 217 568 0 c621 0 609 -1 671 58 41 39 55
70 76 172 l18 90 -1088 0 c-599 0 -1089 -3 -1089 -6z"/>
<path d="M12550 10027 c0 -1 92 -126 205 -277 112 -151 205 -278 205 -282 0
-4 -52 18 -116 48 -64 30 -119 53 -122 50 -9 -10 -162 -740 -162 -776 0 -59
38 -122 90 -147 l44 -23 868 0 c477 0 868 2 868 3 0 2 14 71 30 152 17 81 30
152 30 157 0 4 -271 8 -602 8 -332 0 -613 3 -626 6 -31 9 -34 37 -14 134 l17
85 535 5 535 5 32 23 c68 48 86 85 129 265 l6 27 -581 0 c-365 0 -581 4 -581
10 0 5 10 54 21 109 l22 101 581 2 c567 3 582 4 621 24 58 30 92 86 120 195
14 52 25 95 25 97 0 1 -490 2 -1090 2 -599 0 -1090 -1 -1090 -3z"/>
<path d="M16006 10018 c9 -15 265 -352 362 -476 72 -92 75 -91 -82 -18 -55 25
-100 45 -102 44 -3 -4 -99 -442 -150 -688 -24 -118 -46 -225 -49 -237 l-5 -23
314 0 c291 0 315 1 320 18 12 42 296 1371 296 1387 0 3 -205 5 -456 5 -361 0
-454 -3 -448 -12z"/>
<path d="M17397 9888 c59 -79 152 -201 208 -273 55 -71 104 -136 108 -142 7
-11 -55 13 -196 77 -27 12 -50 20 -52 18 -2 -1 -24 -104 -50 -228 -41 -196
-135 -633 -150 -697 l-5 -23 968 0 c1082 0 1021 -4 1106 71 25 22 54 55 66 73
13 23 44 144 89 362 39 181 88 415 111 519 47 215 48 264 7 318 -54 72 29 67
-1206 67 l-1112 0 108 -142z m1561 -206 c4 -25 -122 -648 -140 -695 -6 -16
-22 -33 -35 -38 -13 -5 -202 -9 -420 -9 l-395 0 5 23 c3 12 40 185 83 385 l78
362 410 -2 411 -3 3 -23z"/>
<path d="M15175 9058 c-3 -13 -23 -106 -45 -208 -22 -102 -42 -195 -45 -207
l-5 -23 230 0 c126 0 230 1 230 3 0 1 22 101 49 222 26 121 46 223 44 228 -2
4 -105 7 -228 7 l-225 0 -5 -22z"/>
</g>
</svg>
